<svg width="340" height="100" viewBox="0 0 340 100" fill="none" xmlns="http://www.w3.org/2000/svg">
  <!-- Emblema R P Izquierda -->
  <g transform="translate(5, 5) scale(0.9)">
    <path d="M20 78 L78 20" stroke="#2C2420" stroke-width="5.5" stroke-linecap="round"/>
    <path d="M78 78 L20 20" stroke="#2C2420" stroke-width="5.5" stroke-linecap="round"/>
    <circle cx="20" cy="20" r="8" fill="none" stroke="#2C2420" stroke-width="4.5"/>
    <circle cx="78" cy="20" r="8" fill="none" stroke="#2C2420" stroke-width="4.5"/>
    <rect x="16" y="73" width="8" height="12" rx="3" transform="rotate(-45 20 78)" fill="#2C2420"/>
    <rect x="74" y="73" width="8" height="12" rx="3" transform="rotate(45 78 78)" fill="#2C2420"/>
    <text x="49" y="31" text-anchor="middle" fill="#2C2420" font-family="'Playfair Display', serif" font-weight="800" font-size="24">R</text>
    <text x="49" y="88" text-anchor="middle" fill="#2C2420" font-family="'Playfair Display', serif" font-weight="800" font-size="24">P</text>
    <path d="M10 55 L32 33" stroke="#7A6B5D" stroke-width="2.5" stroke-dasharray="4 3" stroke-linecap="round"/>
    <path d="M68 33 L90 55" stroke="#7A6B5D" stroke-width="2.5" stroke-dasharray="4 3" stroke-linecap="round"/>
  </g>
  <!-- Texto Principal ROCHE -->
  <text x="115" y="52" fill="#2C2420" font-family="'Playfair Display', serif" font-weight="800" font-size="34" letter-spacing="3">ROCHE</text>
  <!-- Subtítulo PIZZERÍA PARRILLA -->
  <text x="117" y="70" fill="#7A6B5D" font-family="'Inter', sans-serif" font-weight="600" font-size="11" letter-spacing="3.5">PIZZERÍA · PARRILLA</text>
  <!-- Línea Tricolor Bandera Italiana -->
  <rect x="117" y="77" width="55" height="3" rx="1.5" fill="#009246"/>
  <rect x="172" y="77" width="55" height="3" rx="1.5" fill="#D4A84B"/>
  <rect x="227" y="77" width="55" height="3" rx="1.5" fill="#CE2B37"/>
</svg>
